<mxfile host="app.diagrams.net" modified="2024-05-26T13:49:32.469Z" agent="Mozilla/5.0 (X11; Linux x86_64; rv:107.0) Gecko/20100101 Firefox/107.0" etag="XhnQVTtyo6fo1Rk5GBhV" version="24.0.7" type="device">
  <diagram id="C5RBs43oDa-KdzZeNtuy" name="Page-1">
    <mxGraphModel dx="1434" dy="688" grid="1" gridSize="10" guides="1" tooltips="1" connect="1" arrows="1" fold="1" page="1" pageScale="1" pageWidth="827" pageHeight="1169" math="0" shadow="0">
      <root>
        <mxCell id="WIyWlLk6GJQsqaUBKTNV-0" />
        <mxCell id="WIyWlLk6GJQsqaUBKTNV-1" parent="WIyWlLk6GJQsqaUBKTNV-0" />
        <mxCell id="DDMu9djycjJGDTp91-n1-2" value="" style="edgeStyle=orthogonalEdgeStyle;rounded=0;orthogonalLoop=1;jettySize=auto;html=1;entryX=0.034;entryY=0.501;entryDx=0;entryDy=0;entryPerimeter=0;" edge="1" parent="WIyWlLk6GJQsqaUBKTNV-1" source="DDMu9djycjJGDTp91-n1-13" target="DDMu9djycjJGDTp91-n1-1">
          <mxGeometry relative="1" as="geometry" />
        </mxCell>
        <mxCell id="DDMu9djycjJGDTp91-n1-0" value="Arrival" style="rounded=1;whiteSpace=wrap;html=1;fillColor=#d5e8d4;strokeColor=#82b366;" vertex="1" parent="WIyWlLk6GJQsqaUBKTNV-1">
          <mxGeometry x="20" y="180" width="80" height="30" as="geometry" />
        </mxCell>
        <mxCell id="DDMu9djycjJGDTp91-n1-9" style="edgeStyle=orthogonalEdgeStyle;rounded=0;orthogonalLoop=1;jettySize=auto;html=1;exitX=0.495;exitY=0.053;exitDx=0;exitDy=0;entryX=0;entryY=0.5;entryDx=0;entryDy=0;exitPerimeter=0;" edge="1" parent="WIyWlLk6GJQsqaUBKTNV-1" source="DDMu9djycjJGDTp91-n1-1" target="DDMu9djycjJGDTp91-n1-3">
          <mxGeometry relative="1" as="geometry">
            <Array as="points">
              <mxPoint x="289" y="150" />
            </Array>
          </mxGeometry>
        </mxCell>
        <mxCell id="DDMu9djycjJGDTp91-n1-18" style="edgeStyle=orthogonalEdgeStyle;rounded=0;orthogonalLoop=1;jettySize=auto;html=1;exitX=0.501;exitY=0.967;exitDx=0;exitDy=0;entryX=0;entryY=0.5;entryDx=0;entryDy=0;exitPerimeter=0;" edge="1" parent="WIyWlLk6GJQsqaUBKTNV-1" source="DDMu9djycjJGDTp91-n1-1" target="DDMu9djycjJGDTp91-n1-15">
          <mxGeometry relative="1" as="geometry">
            <Array as="points">
              <mxPoint x="290" y="240" />
            </Array>
          </mxGeometry>
        </mxCell>
        <mxCell id="DDMu9djycjJGDTp91-n1-1" value="&lt;div&gt;Trauma or &lt;br&gt;&lt;/div&gt;&lt;div&gt;non-trauma?&lt;br&gt;&lt;/div&gt;" style="rhombus;whiteSpace=wrap;html=1;rounded=1;fillColor=#e1d5e7;strokeColor=#9673a6;" vertex="1" parent="WIyWlLk6GJQsqaUBKTNV-1">
          <mxGeometry x="240" y="155" width="100" height="80" as="geometry" />
        </mxCell>
        <mxCell id="DDMu9djycjJGDTp91-n1-10" style="edgeStyle=orthogonalEdgeStyle;rounded=0;orthogonalLoop=1;jettySize=auto;html=1;exitX=1;exitY=0.5;exitDx=0;exitDy=0;" edge="1" parent="WIyWlLk6GJQsqaUBKTNV-1" source="DDMu9djycjJGDTp91-n1-3" target="DDMu9djycjJGDTp91-n1-8">
          <mxGeometry relative="1" as="geometry" />
        </mxCell>
        <mxCell id="DDMu9djycjJGDTp91-n1-3" value="stabilisation" style="rounded=0;whiteSpace=wrap;html=1;fillColor=#dae8fc;strokeColor=#6c8ebf;" vertex="1" parent="WIyWlLk6GJQsqaUBKTNV-1">
          <mxGeometry x="334" y="130" width="80" height="40" as="geometry" />
        </mxCell>
        <mxCell id="DDMu9djycjJGDTp91-n1-6" value="Discharge" style="rounded=1;whiteSpace=wrap;html=1;fillColor=#d5e8d4;strokeColor=#82b366;" vertex="1" parent="WIyWlLk6GJQsqaUBKTNV-1">
          <mxGeometry x="710" y="135" width="80" height="30" as="geometry" />
        </mxCell>
        <mxCell id="DDMu9djycjJGDTp91-n1-11" style="edgeStyle=orthogonalEdgeStyle;rounded=0;orthogonalLoop=1;jettySize=auto;html=1;exitX=1;exitY=0.5;exitDx=0;exitDy=0;entryX=0;entryY=0.5;entryDx=0;entryDy=0;" edge="1" parent="WIyWlLk6GJQsqaUBKTNV-1" source="DDMu9djycjJGDTp91-n1-8" target="DDMu9djycjJGDTp91-n1-6">
          <mxGeometry relative="1" as="geometry" />
        </mxCell>
        <mxCell id="DDMu9djycjJGDTp91-n1-8" value="treatment" style="rounded=0;whiteSpace=wrap;html=1;fillColor=#dae8fc;strokeColor=#6c8ebf;" vertex="1" parent="WIyWlLk6GJQsqaUBKTNV-1">
          <mxGeometry x="475" y="130" width="80" height="40" as="geometry" />
        </mxCell>
        <mxCell id="DDMu9djycjJGDTp91-n1-14" value="" style="edgeStyle=orthogonalEdgeStyle;rounded=0;orthogonalLoop=1;jettySize=auto;html=1;" edge="1" parent="WIyWlLk6GJQsqaUBKTNV-1" source="DDMu9djycjJGDTp91-n1-0" target="DDMu9djycjJGDTp91-n1-13">
          <mxGeometry relative="1" as="geometry">
            <mxPoint x="100" y="195" as="sourcePoint" />
            <mxPoint x="240" y="195" as="targetPoint" />
          </mxGeometry>
        </mxCell>
        <mxCell id="DDMu9djycjJGDTp91-n1-13" value="triage" style="rounded=0;whiteSpace=wrap;html=1;fillColor=#dae8fc;strokeColor=#6c8ebf;" vertex="1" parent="WIyWlLk6GJQsqaUBKTNV-1">
          <mxGeometry x="130" y="175" width="80" height="40" as="geometry" />
        </mxCell>
        <mxCell id="DDMu9djycjJGDTp91-n1-20" style="edgeStyle=orthogonalEdgeStyle;rounded=0;orthogonalLoop=1;jettySize=auto;html=1;exitX=1;exitY=0.5;exitDx=0;exitDy=0;entryX=0;entryY=0.5;entryDx=0;entryDy=0;" edge="1" parent="WIyWlLk6GJQsqaUBKTNV-1" source="DDMu9djycjJGDTp91-n1-15" target="DDMu9djycjJGDTp91-n1-16">
          <mxGeometry relative="1" as="geometry" />
        </mxCell>
        <mxCell id="DDMu9djycjJGDTp91-n1-15" value="registration" style="rounded=0;whiteSpace=wrap;html=1;fillColor=#dae8fc;strokeColor=#6c8ebf;" vertex="1" parent="WIyWlLk6GJQsqaUBKTNV-1">
          <mxGeometry x="334" y="220" width="80" height="40" as="geometry" />
        </mxCell>
        <mxCell id="DDMu9djycjJGDTp91-n1-21" style="edgeStyle=orthogonalEdgeStyle;rounded=0;orthogonalLoop=1;jettySize=auto;html=1;exitX=1;exitY=0.5;exitDx=0;exitDy=0;entryX=0.028;entryY=0.498;entryDx=0;entryDy=0;entryPerimeter=0;" edge="1" parent="WIyWlLk6GJQsqaUBKTNV-1" source="DDMu9djycjJGDTp91-n1-16" target="DDMu9djycjJGDTp91-n1-17">
          <mxGeometry relative="1" as="geometry" />
        </mxCell>
        <mxCell id="DDMu9djycjJGDTp91-n1-16" value="examination" style="rounded=0;whiteSpace=wrap;html=1;fillColor=#dae8fc;strokeColor=#6c8ebf;" vertex="1" parent="WIyWlLk6GJQsqaUBKTNV-1">
          <mxGeometry x="475" y="220" width="80" height="40" as="geometry" />
        </mxCell>
        <mxCell id="DDMu9djycjJGDTp91-n1-23" style="edgeStyle=orthogonalEdgeStyle;rounded=0;orthogonalLoop=1;jettySize=auto;html=1;exitX=0.215;exitY=0.004;exitDx=0;exitDy=0;entryX=0;entryY=0.5;entryDx=0;entryDy=0;exitPerimeter=0;" edge="1" parent="WIyWlLk6GJQsqaUBKTNV-1" source="DDMu9djycjJGDTp91-n1-33" target="DDMu9djycjJGDTp91-n1-22">
          <mxGeometry relative="1" as="geometry" />
        </mxCell>
        <mxCell id="DDMu9djycjJGDTp91-n1-25" style="edgeStyle=orthogonalEdgeStyle;rounded=0;orthogonalLoop=1;jettySize=auto;html=1;exitX=0.5;exitY=0;exitDx=0;exitDy=0;entryX=0;entryY=0.5;entryDx=0;entryDy=0;" edge="1" parent="WIyWlLk6GJQsqaUBKTNV-1" source="DDMu9djycjJGDTp91-n1-17" target="DDMu9djycjJGDTp91-n1-6">
          <mxGeometry relative="1" as="geometry" />
        </mxCell>
        <mxCell id="DDMu9djycjJGDTp91-n1-29" value="N" style="edgeLabel;html=1;align=center;verticalAlign=middle;resizable=0;points=[];" vertex="1" connectable="0" parent="DDMu9djycjJGDTp91-n1-25">
          <mxGeometry x="-0.4872" y="1" relative="1" as="geometry">
            <mxPoint x="-9" y="26" as="offset" />
          </mxGeometry>
        </mxCell>
        <mxCell id="DDMu9djycjJGDTp91-n1-17" value="Treat?" style="rhombus;whiteSpace=wrap;html=1;rounded=1;fillColor=#e1d5e7;strokeColor=#9673a6;" vertex="1" parent="WIyWlLk6GJQsqaUBKTNV-1">
          <mxGeometry x="590" y="200" width="100" height="80" as="geometry" />
        </mxCell>
        <mxCell id="DDMu9djycjJGDTp91-n1-24" style="edgeStyle=orthogonalEdgeStyle;rounded=0;orthogonalLoop=1;jettySize=auto;html=1;exitX=0.5;exitY=0;exitDx=0;exitDy=0;entryX=0.5;entryY=1;entryDx=0;entryDy=0;" edge="1" parent="WIyWlLk6GJQsqaUBKTNV-1" source="DDMu9djycjJGDTp91-n1-22" target="DDMu9djycjJGDTp91-n1-6">
          <mxGeometry relative="1" as="geometry" />
        </mxCell>
        <mxCell id="DDMu9djycjJGDTp91-n1-22" value="&lt;div&gt;non-trauma&lt;/div&gt;&lt;div&gt;treatment&lt;br&gt;&lt;/div&gt;" style="rounded=0;whiteSpace=wrap;html=1;fillColor=#dae8fc;strokeColor=#6c8ebf;" vertex="1" parent="WIyWlLk6GJQsqaUBKTNV-1">
          <mxGeometry x="710" y="220" width="80" height="40" as="geometry" />
        </mxCell>
        <mxCell id="DDMu9djycjJGDTp91-n1-33" value="Y" style="text;html=1;align=center;verticalAlign=middle;resizable=0;points=[];autosize=1;strokeColor=none;fillColor=none;" vertex="1" parent="WIyWlLk6GJQsqaUBKTNV-1">
          <mxGeometry x="680" y="240" width="30" height="30" as="geometry" />
        </mxCell>
        <mxCell id="DDMu9djycjJGDTp91-n1-34" value="Trauma" style="text;html=1;align=center;verticalAlign=middle;resizable=0;points=[];autosize=1;strokeColor=none;fillColor=none;" vertex="1" parent="WIyWlLk6GJQsqaUBKTNV-1">
          <mxGeometry x="260" y="125" width="60" height="30" as="geometry" />
        </mxCell>
        <mxCell id="DDMu9djycjJGDTp91-n1-35" value="Non-trauma" style="text;html=1;align=center;verticalAlign=middle;resizable=0;points=[];autosize=1;strokeColor=none;fillColor=none;" vertex="1" parent="WIyWlLk6GJQsqaUBKTNV-1">
          <mxGeometry x="250" y="235" width="90" height="30" as="geometry" />
        </mxCell>
        <mxCell id="DDMu9djycjJGDTp91-n1-36" value="&lt;div&gt;trauma &lt;br&gt;&lt;/div&gt;&lt;div&gt;room&lt;/div&gt;" style="ellipse;whiteSpace=wrap;html=1;aspect=fixed;fillColor=#f8cecc;strokeColor=#b85450;" vertex="1" parent="WIyWlLk6GJQsqaUBKTNV-1">
          <mxGeometry x="349" y="20" width="50" height="50" as="geometry" />
        </mxCell>
        <mxCell id="DDMu9djycjJGDTp91-n1-37" value="cubicle" style="ellipse;whiteSpace=wrap;html=1;aspect=fixed;fillColor=#f8cecc;strokeColor=#b85450;" vertex="1" parent="WIyWlLk6GJQsqaUBKTNV-1">
          <mxGeometry x="490" y="20" width="50" height="50" as="geometry" />
        </mxCell>
        <mxCell id="DDMu9djycjJGDTp91-n1-38" value="clerk" style="ellipse;whiteSpace=wrap;html=1;aspect=fixed;fillColor=#f8cecc;strokeColor=#b85450;" vertex="1" parent="WIyWlLk6GJQsqaUBKTNV-1">
          <mxGeometry x="349" y="320" width="50" height="50" as="geometry" />
        </mxCell>
        <mxCell id="DDMu9djycjJGDTp91-n1-41" value="bay" style="ellipse;whiteSpace=wrap;html=1;aspect=fixed;fillColor=#f8cecc;strokeColor=#b85450;" vertex="1" parent="WIyWlLk6GJQsqaUBKTNV-1">
          <mxGeometry x="145" y="60" width="50" height="50" as="geometry" />
        </mxCell>
        <mxCell id="DDMu9djycjJGDTp91-n1-45" value="" style="curved=1;endArrow=classic;html=1;rounded=0;exitX=0;exitY=0.5;exitDx=0;exitDy=0;entryX=0;entryY=0;entryDx=0;entryDy=0;dashed=1;" edge="1" parent="WIyWlLk6GJQsqaUBKTNV-1" source="DDMu9djycjJGDTp91-n1-36" target="DDMu9djycjJGDTp91-n1-3">
          <mxGeometry width="50" height="50" relative="1" as="geometry">
            <mxPoint x="300" y="30" as="sourcePoint" />
            <mxPoint x="250" y="80" as="targetPoint" />
            <Array as="points">
              <mxPoint x="310" y="70" />
            </Array>
          </mxGeometry>
        </mxCell>
        <mxCell id="DDMu9djycjJGDTp91-n1-56" value="" style="curved=1;endArrow=classic;html=1;rounded=0;exitX=1;exitY=0;exitDx=0;exitDy=0;entryX=1;entryY=0.5;entryDx=0;entryDy=0;dashed=1;" edge="1" parent="WIyWlLk6GJQsqaUBKTNV-1" source="DDMu9djycjJGDTp91-n1-3" target="DDMu9djycjJGDTp91-n1-36">
          <mxGeometry width="50" height="50" relative="1" as="geometry">
            <mxPoint x="410" y="120" as="sourcePoint" />
            <mxPoint x="460" y="70" as="targetPoint" />
            <Array as="points">
              <mxPoint x="440" y="80" />
            </Array>
          </mxGeometry>
        </mxCell>
        <mxCell id="DDMu9djycjJGDTp91-n1-61" value="" style="curved=1;endArrow=classic;html=1;rounded=0;exitX=0;exitY=0.5;exitDx=0;exitDy=0;entryX=0;entryY=0;entryDx=0;entryDy=0;dashed=1;" edge="1" parent="WIyWlLk6GJQsqaUBKTNV-1">
          <mxGeometry width="50" height="50" relative="1" as="geometry">
            <mxPoint x="490" y="45" as="sourcePoint" />
            <mxPoint x="475" y="130" as="targetPoint" />
            <Array as="points">
              <mxPoint x="451" y="70" />
            </Array>
          </mxGeometry>
        </mxCell>
        <mxCell id="DDMu9djycjJGDTp91-n1-62" value="" style="curved=1;endArrow=classic;html=1;rounded=0;exitX=1;exitY=0;exitDx=0;exitDy=0;entryX=1;entryY=0.5;entryDx=0;entryDy=0;dashed=1;" edge="1" parent="WIyWlLk6GJQsqaUBKTNV-1">
          <mxGeometry width="50" height="50" relative="1" as="geometry">
            <mxPoint x="555" y="130" as="sourcePoint" />
            <mxPoint x="540" y="45" as="targetPoint" />
            <Array as="points">
              <mxPoint x="581" y="80" />
            </Array>
          </mxGeometry>
        </mxCell>
        <mxCell id="DDMu9djycjJGDTp91-n1-63" value="" style="curved=1;endArrow=classic;html=1;rounded=0;exitX=0;exitY=0.5;exitDx=0;exitDy=0;entryX=0;entryY=0;entryDx=0;entryDy=0;dashed=1;" edge="1" parent="WIyWlLk6GJQsqaUBKTNV-1">
          <mxGeometry width="50" height="50" relative="1" as="geometry">
            <mxPoint x="145" y="90" as="sourcePoint" />
            <mxPoint x="130" y="175" as="targetPoint" />
            <Array as="points">
              <mxPoint x="106" y="115" />
            </Array>
          </mxGeometry>
        </mxCell>
        <mxCell id="DDMu9djycjJGDTp91-n1-65" value="SEIZE" style="edgeLabel;html=1;align=center;verticalAlign=middle;resizable=0;points=[];" vertex="1" connectable="0" parent="DDMu9djycjJGDTp91-n1-63">
          <mxGeometry x="0.2747" y="2" relative="1" as="geometry">
            <mxPoint as="offset" />
          </mxGeometry>
        </mxCell>
        <mxCell id="DDMu9djycjJGDTp91-n1-64" value="" style="curved=1;endArrow=classic;html=1;rounded=0;exitX=1;exitY=0;exitDx=0;exitDy=0;entryX=1;entryY=0.5;entryDx=0;entryDy=0;dashed=1;" edge="1" parent="WIyWlLk6GJQsqaUBKTNV-1">
          <mxGeometry width="50" height="50" relative="1" as="geometry">
            <mxPoint x="210" y="175" as="sourcePoint" />
            <mxPoint x="195" y="90" as="targetPoint" />
            <Array as="points">
              <mxPoint x="236" y="125" />
            </Array>
          </mxGeometry>
        </mxCell>
        <mxCell id="DDMu9djycjJGDTp91-n1-66" value="RELEASE" style="edgeLabel;html=1;align=center;verticalAlign=middle;resizable=0;points=[];" vertex="1" connectable="0" parent="DDMu9djycjJGDTp91-n1-64">
          <mxGeometry x="-0.3182" y="8" relative="1" as="geometry">
            <mxPoint as="offset" />
          </mxGeometry>
        </mxCell>
        <mxCell id="DDMu9djycjJGDTp91-n1-71" value="" style="curved=1;endArrow=classic;html=1;rounded=0;exitX=0;exitY=0.5;exitDx=0;exitDy=0;entryX=0;entryY=0.5;entryDx=0;entryDy=0;dashed=1;" edge="1" parent="WIyWlLk6GJQsqaUBKTNV-1" source="DDMu9djycjJGDTp91-n1-38">
          <mxGeometry width="50" height="50" relative="1" as="geometry">
            <mxPoint x="319" y="345" as="sourcePoint" />
            <mxPoint x="334" y="260" as="targetPoint" />
            <Array as="points">
              <mxPoint x="310" y="320" />
            </Array>
          </mxGeometry>
        </mxCell>
        <mxCell id="DDMu9djycjJGDTp91-n1-83" value="" style="curved=1;endArrow=classic;html=1;rounded=0;entryX=1;entryY=0.5;entryDx=0;entryDy=0;dashed=1;exitX=1;exitY=1;exitDx=0;exitDy=0;" edge="1" parent="WIyWlLk6GJQsqaUBKTNV-1" source="DDMu9djycjJGDTp91-n1-15">
          <mxGeometry width="50" height="50" relative="1" as="geometry">
            <mxPoint x="413" y="260" as="sourcePoint" />
            <mxPoint x="399" y="345" as="targetPoint" />
            <Array as="points">
              <mxPoint x="440" y="320" />
            </Array>
          </mxGeometry>
        </mxCell>
        <mxCell id="DDMu9djycjJGDTp91-n1-85" value="&lt;div&gt;exam&lt;/div&gt;&lt;div&gt;room&lt;br&gt;&lt;/div&gt;" style="ellipse;whiteSpace=wrap;html=1;aspect=fixed;fillColor=#f8cecc;strokeColor=#b85450;" vertex="1" parent="WIyWlLk6GJQsqaUBKTNV-1">
          <mxGeometry x="489" y="320" width="50" height="50" as="geometry" />
        </mxCell>
        <mxCell id="DDMu9djycjJGDTp91-n1-86" value="" style="curved=1;endArrow=classic;html=1;rounded=0;exitX=0;exitY=0.5;exitDx=0;exitDy=0;entryX=0;entryY=0.5;entryDx=0;entryDy=0;dashed=1;" edge="1" parent="WIyWlLk6GJQsqaUBKTNV-1" source="DDMu9djycjJGDTp91-n1-85">
          <mxGeometry width="50" height="50" relative="1" as="geometry">
            <mxPoint x="459" y="345" as="sourcePoint" />
            <mxPoint x="474" y="260" as="targetPoint" />
            <Array as="points">
              <mxPoint x="450" y="320" />
            </Array>
          </mxGeometry>
        </mxCell>
        <mxCell id="DDMu9djycjJGDTp91-n1-87" value="" style="curved=1;endArrow=classic;html=1;rounded=0;entryX=1;entryY=0.5;entryDx=0;entryDy=0;dashed=1;exitX=1;exitY=1;exitDx=0;exitDy=0;" edge="1" parent="WIyWlLk6GJQsqaUBKTNV-1" source="DDMu9djycjJGDTp91-n1-16">
          <mxGeometry width="50" height="50" relative="1" as="geometry">
            <mxPoint x="553" y="260" as="sourcePoint" />
            <mxPoint x="539" y="345" as="targetPoint" />
            <Array as="points">
              <mxPoint x="580" y="320" />
            </Array>
          </mxGeometry>
        </mxCell>
        <mxCell id="DDMu9djycjJGDTp91-n1-90" value="cubicle" style="ellipse;whiteSpace=wrap;html=1;aspect=fixed;fillColor=#f8cecc;strokeColor=#b85450;" vertex="1" parent="WIyWlLk6GJQsqaUBKTNV-1">
          <mxGeometry x="724" y="320" width="50" height="50" as="geometry" />
        </mxCell>
        <mxCell id="DDMu9djycjJGDTp91-n1-91" value="" style="curved=1;endArrow=classic;html=1;rounded=0;exitX=0;exitY=0.5;exitDx=0;exitDy=0;entryX=0;entryY=0.5;entryDx=0;entryDy=0;dashed=1;" edge="1" parent="WIyWlLk6GJQsqaUBKTNV-1" source="DDMu9djycjJGDTp91-n1-90">
          <mxGeometry width="50" height="50" relative="1" as="geometry">
            <mxPoint x="694" y="345" as="sourcePoint" />
            <mxPoint x="709" y="260" as="targetPoint" />
            <Array as="points">
              <mxPoint x="685" y="320" />
            </Array>
          </mxGeometry>
        </mxCell>
        <mxCell id="DDMu9djycjJGDTp91-n1-92" value="" style="curved=1;endArrow=classic;html=1;rounded=0;entryX=1;entryY=0.5;entryDx=0;entryDy=0;dashed=1;exitX=1;exitY=1;exitDx=0;exitDy=0;" edge="1" parent="WIyWlLk6GJQsqaUBKTNV-1">
          <mxGeometry width="50" height="50" relative="1" as="geometry">
            <mxPoint x="790" y="260" as="sourcePoint" />
            <mxPoint x="774" y="345" as="targetPoint" />
            <Array as="points">
              <mxPoint x="815" y="320" />
            </Array>
          </mxGeometry>
        </mxCell>
      </root>
    </mxGraphModel>
  </diagram>
</mxfile>
